<svg xmlns="http://www.w3.org/2000/svg" width="236" height="87" fill="none" viewBox="0 0 236 87">
  <rect width="234.74" height="86.998" x=".74" fill="#0777E3" rx="12"/>
  <path fill="#fff" fill-rule="evenodd" d="m29.53 42.826-7.135-5.536a4.263 4.263 0 0 1-1.655-3.377c0-1.324.612-2.573 1.655-3.377L40.102 16.8a6.753 6.753 0 0 1 8.276 0l17.707 13.735a4.263 4.263 0 0 1 1.655 3.377 4.263 4.263 0 0 1-1.655 3.377l-7.136 5.536c5.127 7.093 4.5 17.082-1.882 23.468-7.08 7.093-18.574 7.093-25.654 0-6.382-6.386-7.01-16.375-1.882-23.468Zm26.988-1.444c1.132-.88 1.733-2.016 1.733-3.167 0-1.15-.601-2.287-1.733-3.159-2.546-1.978-6.68-1.978-9.226 0l-1.189.918c-1.028.797-2.698.797-3.726 0l-1.189-.918c-2.546-1.978-6.68-1.978-9.226 0-1.132.873-1.733 2.008-1.733 3.16 0 1.15.601 2.286 1.733 3.166l9.753 7.56a4.104 4.104 0 0 0 5.05 0l9.753-7.56Zm-24.906 3.061c-4.327 6.063-3.772 14.547 1.663 19.993 6.052 6.055 15.878 6.055 21.93 0 5.435-5.446 5.99-13.93 1.663-19.993l-8.49 6.582a6.754 6.754 0 0 1-8.276 0 6084.232 6084.232 0 0 0-8.49-6.582Zm29.268-6.446 3.592-2.783c.4-.316.635-.797.635-1.301a1.64 1.64 0 0 0-.635-1.301L46.765 18.877a4.125 4.125 0 0 0-5.05 0L24.008 32.612c-.4.308-.636.79-.636 1.3 0 .505.235.986.636 1.302l3.593 2.783c.067-1.82.962-3.64 2.749-5.024 3.436-2.663 9.015-2.663 12.452 0l1.188.925a.437.437 0 0 0 .5 0l1.188-.925c3.437-2.663 9.016-2.663 12.452 0 1.787 1.384 2.683 3.204 2.75 5.024Z" clip-rule="evenodd"/>
  <path fill="#0777E3" fill-rule="evenodd" d="M60.88 37.997c-.067-1.82-.963-3.64-2.75-5.025-3.436-2.662-9.015-2.662-12.452 0l-1.188.926a.437.437 0 0 1-.5 0l-1.188-.926c-3.437-2.662-9.016-2.662-12.452 0-1.787 1.384-2.683 3.205-2.75 5.025l-3.592-2.783a1.663 1.663 0 0 1-.636-1.301c0-.512.235-.993.636-1.302l17.707-13.734a4.125 4.125 0 0 1 5.05 0L64.472 32.61c.4.309.635.79.635 1.302 0 .504-.234.985-.635 1.301l-3.592 2.783Z" clip-rule="evenodd"/>
  <path fill="#0777E3" fill-rule="evenodd" d="m56.518 41.382-9.753 7.56a4.104 4.104 0 0 1-5.05 0l-9.753-7.56c-1.132-.88-1.733-2.016-1.733-3.167 0-1.15.601-2.286 1.733-3.159 2.546-1.978 6.68-1.978 9.226 0l1.189.918c1.028.797 2.698.797 3.726 0l1.189-.918c2.546-1.978 6.68-1.978 9.226 0 1.132.873 1.733 2.008 1.733 3.16 0 1.15-.601 2.286-1.733 3.166Z" clip-rule="evenodd"/>
  <path fill="#0777E3" fill-rule="evenodd" d="M31.612 44.443c1.415 1.09 7.075 5.483 8.49 6.582a6.754 6.754 0 0 0 8.276 0l8.49-6.582c4.327 6.063 3.772 14.547-1.664 19.993-6.05 6.055-15.877 6.055-21.93 0-5.434-5.446-5.99-13.93-1.662-19.993Z" clip-rule="evenodd"/>
  <path fill="#fff" d="M203.685 59.261c-1.528 0-2.899-.297-4.116-.89-1.216-.595-2.164-1.4-2.842-2.419-.679-1.018-1.019-2.164-1.019-3.437 0-1.527.396-2.73 1.188-3.606.792-.905 2.079-1.542 3.861-1.91 1.782-.396 4.144-.593 7.086-.593h2.249v3.309h-2.207c-1.442 0-2.616.085-3.521.254-.877.142-1.514.396-1.91.764-.367.368-.551.877-.551 1.528 0 .792.269 1.442.806 1.951.566.51 1.372.764 2.418.764.821 0 1.542-.184 2.164-.551a4.277 4.277 0 0 0 1.528-1.57c.367-.68.551-1.443.551-2.291v-4.88c0-1.244-.283-2.121-.848-2.63-.566-.538-1.528-.806-2.885-.806-.764 0-1.599.099-2.504.297-.877.17-1.852.466-2.927.89-.623.283-1.174.354-1.655.213-.481-.17-.849-.453-1.103-.849a2.591 2.591 0 0 1-.382-1.358c0-.509.141-.99.424-1.442.283-.481.75-.835 1.4-1.06 1.33-.538 2.574-.906 3.734-1.104 1.188-.198 2.277-.297 3.267-.297 2.178 0 3.96.325 5.346.976 1.414.622 2.475 1.598 3.182 2.927.707 1.301 1.061 2.984 1.061 5.05v9.419c0 1.046-.255 1.852-.764 2.418-.509.566-1.244.848-2.206.848s-1.711-.282-2.249-.848c-.509-.566-.763-1.372-.763-2.419v-1.57l.297.255c-.17.962-.538 1.796-1.104 2.503-.537.68-1.23 1.217-2.079 1.613-.848.367-1.824.551-2.927.551Zm-15.172-.127c-1.046 0-1.852-.297-2.418-.89-.538-.623-.806-1.486-.806-2.59v-14.51c0-1.131.268-1.994.806-2.588.566-.622 1.372-.933 2.418-.933 1.019 0 1.796.31 2.334.933.566.594.848 1.457.848 2.588v14.51c0 1.104-.268 1.967-.806 2.59-.537.593-1.329.89-2.376.89Zm0-24.99c-1.188 0-2.107-.27-2.758-.806-.622-.566-.933-1.358-.933-2.377 0-1.046.311-1.838.933-2.375.651-.566 1.57-.85 2.758-.85s2.093.284 2.716.85c.622.537.933 1.329.933 2.376 0 1.018-.311 1.81-.933 2.375-.623.538-1.528.807-2.716.807Zm-18.196 25.117c-2.235 0-4.186-.438-5.855-1.315a9.265 9.265 0 0 1-3.819-3.776c-.905-1.64-1.357-3.578-1.357-5.813 0-1.669.254-3.168.763-4.497.509-1.33 1.245-2.461 2.207-3.395a9.563 9.563 0 0 1 3.521-2.163c1.358-.51 2.871-.764 4.54-.764 2.235 0 4.172.438 5.813 1.315 1.669.877 2.956 2.122 3.861 3.734.933 1.612 1.4 3.536 1.4 5.77 0 1.697-.269 3.21-.806 4.54a9.697 9.697 0 0 1-2.207 3.437c-.961.961-2.135 1.697-3.521 2.206-1.358.481-2.871.721-4.54.721Zm0-4.794c.933 0 1.74-.226 2.418-.679.679-.452 1.217-1.117 1.613-1.994.396-.905.594-2.05.594-3.437 0-2.065-.425-3.578-1.273-4.54-.849-.99-1.966-1.485-3.352-1.485-.905 0-1.711.212-2.418.637-.679.424-1.217 1.089-1.613 1.994-.367.877-.551 2.008-.551 3.394 0 2.065.424 3.607 1.273 4.625.848.99 1.951 1.485 3.309 1.485Zm-32.022 4.709c-1.047 0-1.853-.282-2.418-.848-.538-.566-.807-1.372-.807-2.419V40.848c0-1.046.269-1.838.807-2.376.565-.565 1.343-.848 2.333-.848 1.018 0 1.796.283 2.334.848.537.538.806 1.33.806 2.376v2.419l-.467-1.4c.651-1.386 1.612-2.447 2.885-3.182 1.301-.764 2.772-1.146 4.413-1.146 1.669 0 3.041.325 4.115.976 1.075.622 1.881 1.584 2.419 2.885.537 1.273.806 2.9.806 4.88v9.63c0 1.047-.283 1.853-.849 2.419-.537.566-1.329.848-2.376.848-1.018 0-1.81-.282-2.376-.848-.537-.566-.806-1.372-.806-2.419v-9.334c0-1.442-.268-2.475-.806-3.097-.509-.65-1.301-.976-2.376-.976-1.358 0-2.447.424-3.267 1.273-.792.849-1.188 1.98-1.188 3.394v8.74c0 2.178-1.061 3.267-3.182 3.267Zm-20.571.085c-1.754 0-3.211-.325-4.37-.976-1.16-.65-2.023-1.626-2.589-2.927-.537-1.33-.806-2.97-.806-4.922v-9.589c0-1.075.269-1.88.806-2.418.566-.538 1.358-.806 2.376-.806 1.019 0 1.811.269 2.376.806.566.537.849 1.343.849 2.418v9.759c0 1.244.255 2.178.764 2.8.509.594 1.315.891 2.418.891 1.216 0 2.206-.424 2.97-1.273.792-.877 1.188-2.022 1.188-3.436v-8.74c0-1.075.269-1.882.806-2.42.566-.536 1.358-.805 2.376-.805 1.047 0 1.839.269 2.376.806.566.537.849 1.343.849 2.418V55.91c0 2.178-1.033 3.267-3.097 3.267-1.019 0-1.797-.283-2.334-.85-.537-.565-.806-1.37-.806-2.417v-2.843l.636 1.654c-.622 1.443-1.513 2.56-2.673 3.352-1.159.792-2.531 1.188-4.115 1.188Zm-20.146 0c-2.461 0-4.583-.438-6.365-1.315-1.753-.905-3.111-2.164-4.073-3.776-.933-1.64-1.4-3.564-1.4-5.77 0-2.15.453-4.031 1.358-5.643a9.618 9.618 0 0 1 3.776-3.819c1.64-.933 3.493-1.4 5.558-1.4 1.5 0 2.857.255 4.073.764a8.58 8.58 0 0 1 3.14 2.121c.877.905 1.541 2.023 1.994 3.352.453 1.301.679 2.758.679 4.37 0 .537-.17.948-.509 1.23-.34.255-.835.382-1.485.382H91.001v-3.309h10.692l-.679.594c0-1.16-.169-2.122-.509-2.885-.339-.792-.834-1.386-1.485-1.782-.622-.396-1.4-.594-2.333-.594-1.047 0-1.938.24-2.673.721-.736.481-1.302 1.174-1.698 2.08-.396.904-.594 1.993-.594 3.266v.34c0 2.15.496 3.733 1.485 4.752 1.019 1.018 2.518 1.527 4.498 1.527.679 0 1.457-.085 2.333-.255.877-.17 1.698-.438 2.461-.806.651-.31 1.231-.41 1.74-.297.509.085.905.311 1.188.68.283.367.438.791.467 1.272.056.48-.043.962-.297 1.443-.255.452-.679.834-1.273 1.145-.962.538-2.051.934-3.267 1.188a14.996 14.996 0 0 1-3.48.424Z"/>
</svg>
