<?xml version="1.0" encoding="UTF-8" standalone="no"?>
<svg
   width="236"
   height="87"
   fill="none"
   viewBox="0 0 236 87"
   version="1.1"
   id="svg5"
   sodipodi:docname="logo.svg"
   inkscape:version="1.3.2 (091e20e, 2023-11-25, custom)"
   xml:space="preserve"
   xmlns:inkscape="http://www.inkscape.org/namespaces/inkscape"
   xmlns:sodipodi="http://sodipodi.sourceforge.net/DTD/sodipodi-0.dtd"
   xmlns="http://www.w3.org/2000/svg"
   xmlns:svg="http://www.w3.org/2000/svg"><defs
     id="defs5" /><sodipodi:namedview
     id="namedview5"
     pagecolor="#ffffff"
     bordercolor="#000000"
     borderopacity="0.25"
     inkscape:showpageshadow="2"
     inkscape:pageopacity="0.0"
     inkscape:pagecheckerboard="0"
     inkscape:deskcolor="#d1d1d1"
     inkscape:zoom="2.8284271"
     inkscape:cx="111.72287"
     inkscape:cy="22.627417"
     inkscape:window-width="1920"
     inkscape:window-height="991"
     inkscape:window-x="-9"
     inkscape:window-y="-9"
     inkscape:window-maximized="1"
     inkscape:current-layer="svg5" /><rect
     width="234.74"
     height="86.998"
     x=".48"
     y="-.007"
     fill="#fff"
     rx="12"
     id="rect1" /><path
     d="m 43.763672,15.382813 c -0.223503,0.0072 -0.448224,0.02504 -0.671875,0.05469 -1.184316,0.157069 -2.305793,0.625475 -3.25,1.357422 L 22.136719,30.529297 c -1.046023,0.807785 -1.657892,2.055333 -1.65625,3.376953 -0.0012,1.321514 0.610591,2.568871 1.65625,3.376953 l 7.132812,5.537109 h 0.002 c -5.127968,7.092958 -4.499149,17.080836 1.882813,23.466797 7.079957,7.092958 18.574339,7.092958 25.654297,0 6.381961,-6.385961 7.007828,-16.373839 1.880859,-23.466797 l 7.134766,-5.537109 c 1.045659,-0.808082 1.657434,-2.055439 1.65625,-3.376953 0.001,-1.321479 -0.610712,-2.568772 -1.65625,-3.376953 L 48.117187,16.794922 c -1.248155,-0.967538 -2.788999,-1.46231 -4.353515,-1.412109 z m -7.449219,18.183593 c 1.669998,0 3.340283,0.493423 4.613281,1.482422 l 1.189453,0.917969 c 1.027999,0.796999 2.698564,0.796999 3.726563,0 l 1.1875,-0.917969 c 2.545997,-1.977998 6.680565,-1.977998 9.226562,0 1.131999,0.872999 1.732422,2.009158 1.732422,3.160156 0,1.149999 -0.600423,2.286017 -1.732422,3.166016 l -9.751953,7.560547 c -1.484242,1.158668 -3.566539,1.158668 -5.050781,0 L 31.701172,41.375 c -1.131999,-0.879999 -1.732422,-2.016017 -1.732422,-3.166016 0,-1.150998 0.600423,-2.287157 1.732422,-3.160156 1.272999,-0.988999 2.943283,-1.482422 4.613281,-1.482422 z"
     style="clip-rule:evenodd;fill:#1677ff;fill-rule:evenodd;fill-opacity:1"
     id="path7"
     sodipodi:nodetypes="ccccccccccccccccscccccsccccscs" /><path
     fill="#0777E3"
     d="M203.425 59.255c-1.527 0-2.899-.297-4.116-.891-1.216-.594-2.163-1.4-2.842-2.419-.679-1.018-1.019-2.164-1.019-3.437 0-1.527.396-2.729 1.188-3.606.792-.905 2.079-1.541 3.861-1.91 1.782-.395 4.144-.593 7.086-.593h2.249v3.31h-2.207c-1.442 0-2.616.084-3.521.254-.877.141-1.513.396-1.909.764-.368.367-.552.876-.552 1.527 0 .792.269 1.443.806 1.952.566.509 1.372.763 2.419.763.82 0 1.541-.184 2.163-.551a4.277 4.277 0 0 0 1.528-1.57c.368-.679.551-1.443.551-2.291v-4.88c0-1.244-.282-2.12-.848-2.63-.566-.537-1.528-.806-2.885-.806-.764 0-1.598.099-2.504.297-.876.17-1.852.467-2.927.89-.622.284-1.174.354-1.655.213-.481-.17-.848-.453-1.103-.849a2.592 2.592 0 0 1-.382-1.357c0-.51.141-.99.424-1.443.283-.48.75-.834 1.401-1.06 1.329-.538 2.574-.906 3.733-1.104 1.188-.198 2.277-.297 3.267-.297 2.178 0 3.96.325 5.346.976 1.415.622 2.475 1.598 3.182 2.928.708 1.3 1.061 2.984 1.061 5.049v9.419c0 1.046-.254 1.852-.764 2.418-.509.566-1.244.849-2.206.849s-1.711-.283-2.249-.849c-.509-.566-.763-1.372-.763-2.418v-1.57l.297.255c-.17.961-.538 1.796-1.103 2.503-.538.679-1.231 1.216-2.079 1.612-.849.368-1.825.552-2.928.552Zm-15.172-.128c-1.046 0-1.852-.297-2.418-.89-.538-.623-.806-1.486-.806-2.589v-14.51c0-1.132.268-1.994.806-2.588.566-.623 1.372-.934 2.418-.934 1.019 0 1.796.311 2.334.934.566.594.848 1.456.848 2.588v14.51c0 1.103-.268 1.966-.806 2.588-.537.594-1.329.891-2.376.891Zm0-24.99c-1.188 0-2.107-.269-2.758-.806-.622-.566-.933-1.358-.933-2.376 0-1.047.311-1.839.933-2.376.651-.566 1.57-.849 2.758-.849s2.093.283 2.716.849c.622.537.933 1.33.933 2.376 0 1.018-.311 1.81-.933 2.376-.623.537-1.528.806-2.716.806Zm-18.196 25.118c-2.235 0-4.186-.439-5.855-1.316a9.265 9.265 0 0 1-3.819-3.776c-.905-1.64-1.357-3.578-1.357-5.813 0-1.668.254-3.168.763-4.497.509-1.33 1.245-2.46 2.207-3.394a9.563 9.563 0 0 1 3.521-2.164c1.358-.51 2.871-.764 4.54-.764 2.235 0 4.172.439 5.813 1.316 1.669.876 2.956 2.121 3.861 3.733.933 1.613 1.4 3.536 1.4 5.77 0 1.698-.269 3.211-.806 4.54a9.697 9.697 0 0 1-2.207 3.437c-.961.962-2.135 1.697-3.521 2.206-1.358.481-2.871.722-4.54.722Zm0-4.795c.933 0 1.74-.226 2.418-.679.679-.452 1.217-1.117 1.613-1.994.396-.905.594-2.05.594-3.437 0-2.064-.425-3.578-1.273-4.54-.849-.99-1.966-1.484-3.352-1.484-.905 0-1.711.212-2.418.636-.679.424-1.217 1.09-1.613 1.994-.367.877-.551 2.008-.551 3.394 0 2.065.424 3.607 1.273 4.625.848.99 1.951 1.485 3.309 1.485Zm-32.022 4.71c-1.047 0-1.853-.283-2.418-.849-.538-.566-.807-1.372-.807-2.418V40.84c0-1.047.269-1.839.807-2.376.565-.566 1.343-.849 2.333-.849 1.018 0 1.796.283 2.334.849.537.537.806 1.33.806 2.376v2.418l-.467-1.4c.651-1.386 1.612-2.447 2.885-3.182 1.301-.764 2.772-1.146 4.413-1.146 1.669 0 3.041.325 4.115.976 1.075.622 1.881 1.584 2.419 2.885.537 1.273.806 2.9.806 4.88v9.63c0 1.047-.283 1.853-.849 2.42-.537.565-1.329.848-2.376.848-1.018 0-1.81-.283-2.376-.849-.537-.566-.806-1.372-.806-2.418v-9.334c0-1.443-.268-2.476-.806-3.098-.509-.65-1.301-.976-2.376-.976-1.358 0-2.447.425-3.267 1.273-.792.849-1.188 1.98-1.188 3.395v8.74c0 2.178-1.061 3.267-3.182 3.267Zm-20.571.085c-1.754 0-3.211-.326-4.37-.976-1.16-.65-2.023-1.627-2.589-2.928-.537-1.33-.806-2.97-.806-4.921v-9.59c0-1.074.269-1.88.806-2.418.566-.537 1.358-.806 2.376-.806 1.019 0 1.811.269 2.376.806.566.538.849 1.344.849 2.419v9.758c0 1.245.255 2.178.764 2.8.509.595 1.315.892 2.418.892 1.216 0 2.206-.425 2.97-1.273.792-.877 1.188-2.023 1.188-3.437v-8.74c0-1.075.269-1.881.806-2.419.566-.537 1.358-.806 2.376-.806 1.047 0 1.839.269 2.376.806.566.538.849 1.344.849 2.419v15.062c0 2.178-1.033 3.267-3.097 3.267-1.019 0-1.797-.283-2.334-.849-.537-.565-.806-1.372-.806-2.418V53.06l.636 1.655c-.622 1.442-1.513 2.56-2.673 3.352-1.159.792-2.531 1.188-4.115 1.188Zm-20.146 0c-2.461 0-4.583-.439-6.365-1.316-1.753-.905-3.111-2.163-4.073-3.776-.933-1.64-1.4-3.564-1.4-5.77 0-2.15.453-4.03 1.358-5.643a9.616 9.616 0 0 1 3.776-3.819c1.64-.933 3.493-1.4 5.558-1.4 1.5 0 2.857.255 4.073.764a8.58 8.58 0 0 1 3.14 2.121c.877.906 1.541 2.023 1.994 3.352.453 1.301.679 2.758.679 4.37 0 .538-.17.948-.509 1.23-.34.255-.835.383-1.485.383H90.741v-3.31h10.692l-.679.594c0-1.16-.169-2.121-.509-2.885-.34-.792-.834-1.386-1.485-1.782-.622-.396-1.4-.594-2.333-.594-1.047 0-1.938.24-2.673.721-.736.481-1.302 1.174-1.698 2.08-.395.904-.593 1.993-.593 3.266v.34c0 2.15.495 3.733 1.485 4.752 1.018 1.018 2.517 1.527 4.497 1.527.679 0 1.457-.085 2.334-.254.876-.17 1.697-.439 2.46-.806.651-.312 1.231-.41 1.74-.297.509.084.905.31 1.188.678.283.368.438.792.467 1.273.056.481-.043.962-.297 1.443-.255.452-.679.834-1.273 1.145-.962.538-2.051.934-3.267 1.188a14.996 14.996 0 0 1-3.48.425Z"
     id="path5"
     style="fill:#1677ff;fill-opacity:1" /></svg>
