<?xml version="1.0" standalone="no"?>
<!DOCTYPE svg PUBLIC "-//W3C//DTD SVG 20010904//EN"
 "http://www.w3.org/TR/2001/REC-SVG-20010904/DTD/svg10.dtd">
<svg version="1.0" xmlns="http://www.w3.org/2000/svg"
 width="16.000000pt" height="16.000000pt" viewBox="0 0 16.000000 16.000000"
 preserveAspectRatio="xMidYMid meet">

<g transform="translate(0.000000,16.000000) scale(0.100000,-0.100000)"
fill="#000000" stroke="none">
<path d="M46 135 c-10 -8 -24 -16 -30 -18 -8 -3 -7 -8 2 -18 9 -9 12 -10 12
-1 0 8 18 12 50 12 29 0 50 -5 50 -11 0 -5 5 -7 10 -4 16 10 12 20 -19 38 -35
20 -50 21 -75 2z"/>
<path d="M26 65 c-8 -23 4 -45 30 -56 45 -16 92 18 78 56 -7 18 -9 18 -34 3
-16 -10 -24 -10 -40 0 -25 15 -27 15 -34 -3z"/>
</g>
</svg>
